<svg width="360" height="387" viewBox="0 0 360 387" fill="none" xmlns="http://www.w3.org/2000/svg">
<g filter="url(#filter0_ii)">
<path d="M22.2524 389.927C22.9673 370.626 23.9311 313.762 25.8268 293.421C26.3904 287.372 34.5453 279.459 41.8154 286.527C53.6003 297.985 48.9614 325.464 62.4634 331.206C81.9785 339.507 101.933 335.797 107.717 359.928C110.417 371.194 110.289 387.923 109.568 397.714C108.847 407.505 107.557 405.731 104.111 408.884C100.664 412.037 96.6173 414.718 92.3345 413.479C88.0517 412.241 84.5348 409.184 82.6966 402.693C80.8584 396.201 84.1455 389.378 83.1434 381.023C82.1413 372.668 83.2902 365.315 77.6862 360.918C72.0822 356.52 59.6614 350.131 55.1233 359.035C50.5852 367.939 55.0212 396.157 54.9957 405.437" stroke="white" stroke-width="11" stroke-linecap="round" stroke-linejoin="round"/>
</g>
<g filter="url(#filter1_ii)">
<path d="M139.439 403.714C139.669 383.034 139.094 324.556 140.588 300.314C141.225 289.974 142.543 278.715 154.949 279.634C167.188 280.541 167.938 299.058 169 310.5C171.183 334.027 173.906 380.455 175.054 401.416" stroke="white" stroke-width="11" stroke-linecap="round" stroke-linejoin="round"/>
</g>
<g filter="url(#filter2_ii)">
<path d="M260.646 397.969C260.646 391.791 264.642 379.697 260.072 372C255.502 364.302 249.425 361.09 237.796 359.482C207.663 355.314 200.693 340.108 200.043 305.5C199.551 279.344 199.411 259.127 200.043 235.689C200.043 209.68 223.857 206.957 228 229.5C232.053 251.552 231.496 282.873 233.5 305.5C234.53 317.132 236.871 336.606 249.03 333.057C258.25 330.366 259.43 323.654 260.072 314.611C261.738 291.155 262.121 247.539 263.5 224C263.5 176 283.063 184.22 287.677 202.5C291.754 218.653 278.906 248.227 303.442 251.199C312.716 252.323 330.135 248.084 338.898 251.933C354.035 258.581 350.514 299.301 350.259 312.633C350.259 381.5 330.083 380.367 322 347C318.911 334.247 318.499 311.375 316.367 297.442C314.197 283.255 293.075 278.821 291.666 300.5C290.083 324.856 291.321 379.472 291.666 402.565" stroke="white" stroke-width="11" stroke-linecap="round" stroke-linejoin="round"/>
</g>
<g filter="url(#filter3_ii)">
<path d="M-6.46948 252.635C4.10027 252.52 30.18 251.576 46.3793 252.061C62.5785 252.546 68.1187 252.508 74.527 255.061C86.1777 259.702 73.9966 292.458 92.6219 300.314C98.8259 302.931 105.949 303.952 110.142 293.548C114.336 283.145 113.449 260.729 113.589 248.295C113.708 237.73 112.158 227.023 101.781 221.903C75.4784 208.924 22.6577 223.7 -6.46948 225.062" stroke="white" stroke-width="11" stroke-linecap="round" stroke-linejoin="round"/>
</g>
<g filter="url(#filter4_ii)">
<path d="M-4.74609 87.1959C-0.0292802 87.1959 12.634 83.2322 18.838 87.1959C25.042 91.1595 25.3611 96.9039 26.2738 107.014C28.1175 127.437 9.23693 183.037 36.0393 191.744C56.742 198.47 58.2108 174.442 58.4426 161.427C59.0426 127.739 54.4853 49.238 54.996 18.8372C55.3089 0.204456 76.8486 3.72235 79.6651 17.4011C81.4459 26.0496 83.1373 25.9858 83.7181 53.7824C84.2989 81.5791 82.5692 132.475 82.5692 156.384C82.5692 167.785 81.4856 191.536 97.8239 192.319C107.417 192.778 128.02 190.538 137.141 191.744C138.545 191.93 146.46 253 164.715 253C191.458 253 176 135.366 176 105.323C176 95.0168 154.64 85.4895 150.5 105.323C146.666 123.689 154.251 162.297 133.822 163.15C102.5 164.458 106.711 130.754 107.5 120.5C111.5 68.5 124 54.4526 145.183 53.8782C214.298 52.004 197.867 84.2274 200.011 143.491C200.809 165.543 199.085 175.577 204.319 184.468C209.553 193.359 220.487 204.969 226.18 187.947C231.873 170.924 228.765 119.563 232.786 99.3549C236.672 79.8247 258.708 82.7365 258.923 100.982C259.038 110.722 256.849 125.556 257.2 138.194C257.551 150.831 257.717 157.827 260.678 164.171C264.873 173.158 278.943 171.206 284.454 164.458C287.926 160.208 287.696 160.488 289.369 148.661C291.041 136.834 292.126 119.173 292.815 105.323C293.505 91.4723 293.505 88.032 292.815 79.409C292.126 70.7859 293.275 66.5095 289.369 62.2076C285.462 57.9057 284.888 59.4503 273.284 57.8993C261.68 56.3483 240.764 57.4844 231.35 54.4526C214.86 49.1425 223.807 36.0498 231.35 32.5919C246.97 25.4309 270.47 25.9948 287.262 27.4538C337.069 31.7811 315.039 81.8614 315.793 124.247C316.259 150.409 312.887 189.47 324.41 213.829C330.382 226.454 343.907 224.212 344.515 206.5C345.428 179.91 344.247 123.916 344.515 92.685C344.562 87.2491 343.985 63.4429 351.153 60.1971C355.889 58.0525 367.901 56.9802 372.088 56.176" stroke="white" stroke-width="11" stroke-linecap="round" stroke-linejoin="round"/>
</g>
<defs>
<filter id="filter0_ii" x="16.7524" y="274.244" width="98.7595" height="149.052" filterUnits="userSpaceOnUse" color-interpolation-filters="sRGB">
<feFlood flood-opacity="0" result="BackgroundImageFix"/>
<feBlend mode="normal" in="SourceGraphic" in2="BackgroundImageFix" result="shape"/>
<feColorMatrix in="SourceAlpha" type="matrix" values="0 0 0 0 0 0 0 0 0 0 0 0 0 0 0 0 0 0 127 0" result="hardAlpha"/>
<feOffset dy="4"/>
<feGaussianBlur stdDeviation="2"/>
<feComposite in2="hardAlpha" operator="arithmetic" k2="-1" k3="1"/>
<feColorMatrix type="matrix" values="0 0 0 0 0 0 0 0 0 0 0 0 0 0 0 0 0 0 0.26 0"/>
<feBlend mode="normal" in2="shape" result="effect1_innerShadow"/>
<feColorMatrix in="SourceAlpha" type="matrix" values="0 0 0 0 0 0 0 0 0 0 0 0 0 0 0 0 0 0 127 0" result="hardAlpha"/>
<feOffset dy="-4"/>
<feGaussianBlur stdDeviation="2"/>
<feComposite in2="hardAlpha" operator="arithmetic" k2="-1" k3="1"/>
<feColorMatrix type="matrix" values="0 0 0 0 0 0 0 0 0 0 0 0 0 0 0 0 0 0 0.35 0"/>
<feBlend mode="normal" in2="effect1_innerShadow" result="effect2_innerShadow"/>
</filter>
<filter id="filter1_ii" x="133.939" y="270.082" width="46.6156" height="143.132" filterUnits="userSpaceOnUse" color-interpolation-filters="sRGB">
<feFlood flood-opacity="0" result="BackgroundImageFix"/>
<feBlend mode="normal" in="SourceGraphic" in2="BackgroundImageFix" result="shape"/>
<feColorMatrix in="SourceAlpha" type="matrix" values="0 0 0 0 0 0 0 0 0 0 0 0 0 0 0 0 0 0 127 0" result="hardAlpha"/>
<feOffset dy="4"/>
<feGaussianBlur stdDeviation="2"/>
<feComposite in2="hardAlpha" operator="arithmetic" k2="-1" k3="1"/>
<feColorMatrix type="matrix" values="0 0 0 0 0 0 0 0 0 0 0 0 0 0 0 0 0 0 0.26 0"/>
<feBlend mode="normal" in2="shape" result="effect1_innerShadow"/>
<feColorMatrix in="SourceAlpha" type="matrix" values="0 0 0 0 0 0 0 0 0 0 0 0 0 0 0 0 0 0 127 0" result="hardAlpha"/>
<feOffset dy="-4"/>
<feGaussianBlur stdDeviation="2"/>
<feComposite in2="hardAlpha" operator="arithmetic" k2="-1" k3="1"/>
<feColorMatrix type="matrix" values="0 0 0 0 0 0 0 0 0 0 0 0 0 0 0 0 0 0 0.35 0"/>
<feBlend mode="normal" in2="effect1_innerShadow" result="effect2_innerShadow"/>
</filter>
<filter id="filter2_ii" x="194.12" y="178.628" width="162.169" height="233.436" filterUnits="userSpaceOnUse" color-interpolation-filters="sRGB">
<feFlood flood-opacity="0" result="BackgroundImageFix"/>
<feBlend mode="normal" in="SourceGraphic" in2="BackgroundImageFix" result="shape"/>
<feColorMatrix in="SourceAlpha" type="matrix" values="0 0 0 0 0 0 0 0 0 0 0 0 0 0 0 0 0 0 127 0" result="hardAlpha"/>
<feOffset dy="4"/>
<feGaussianBlur stdDeviation="2"/>
<feComposite in2="hardAlpha" operator="arithmetic" k2="-1" k3="1"/>
<feColorMatrix type="matrix" values="0 0 0 0 0 0 0 0 0 0 0 0 0 0 0 0 0 0 0.26 0"/>
<feBlend mode="normal" in2="shape" result="effect1_innerShadow"/>
<feColorMatrix in="SourceAlpha" type="matrix" values="0 0 0 0 0 0 0 0 0 0 0 0 0 0 0 0 0 0 127 0" result="hardAlpha"/>
<feOffset dy="-4"/>
<feGaussianBlur stdDeviation="2"/>
<feComposite in2="hardAlpha" operator="arithmetic" k2="-1" k3="1"/>
<feColorMatrix type="matrix" values="0 0 0 0 0 0 0 0 0 0 0 0 0 0 0 0 0 0 0.35 0"/>
<feBlend mode="normal" in2="effect1_innerShadow" result="effect2_innerShadow"/>
</filter>
<filter id="filter3_ii" x="-11.9695" y="207.104" width="131.065" height="104.462" filterUnits="userSpaceOnUse" color-interpolation-filters="sRGB">
<feFlood flood-opacity="0" result="BackgroundImageFix"/>
<feBlend mode="normal" in="SourceGraphic" in2="BackgroundImageFix" result="shape"/>
<feColorMatrix in="SourceAlpha" type="matrix" values="0 0 0 0 0 0 0 0 0 0 0 0 0 0 0 0 0 0 127 0" result="hardAlpha"/>
<feOffset dy="4"/>
<feGaussianBlur stdDeviation="2"/>
<feComposite in2="hardAlpha" operator="arithmetic" k2="-1" k3="1"/>
<feColorMatrix type="matrix" values="0 0 0 0 0 0 0 0 0 0 0 0 0 0 0 0 0 0 0.26 0"/>
<feBlend mode="normal" in2="shape" result="effect1_innerShadow"/>
<feColorMatrix in="SourceAlpha" type="matrix" values="0 0 0 0 0 0 0 0 0 0 0 0 0 0 0 0 0 0 127 0" result="hardAlpha"/>
<feOffset dy="-4"/>
<feGaussianBlur stdDeviation="2"/>
<feComposite in2="hardAlpha" operator="arithmetic" k2="-1" k3="1"/>
<feColorMatrix type="matrix" values="0 0 0 0 0 0 0 0 0 0 0 0 0 0 0 0 0 0 0.35 0"/>
<feBlend mode="normal" in2="effect1_innerShadow" result="effect2_innerShadow"/>
</filter>
<filter id="filter4_ii" x="-10.2461" y="-3.51" width="387.835" height="266.01" filterUnits="userSpaceOnUse" color-interpolation-filters="sRGB">
<feFlood flood-opacity="0" result="BackgroundImageFix"/>
<feBlend mode="normal" in="SourceGraphic" in2="BackgroundImageFix" result="shape"/>
<feColorMatrix in="SourceAlpha" type="matrix" values="0 0 0 0 0 0 0 0 0 0 0 0 0 0 0 0 0 0 127 0" result="hardAlpha"/>
<feOffset dy="4"/>
<feGaussianBlur stdDeviation="2"/>
<feComposite in2="hardAlpha" operator="arithmetic" k2="-1" k3="1"/>
<feColorMatrix type="matrix" values="0 0 0 0 0 0 0 0 0 0 0 0 0 0 0 0 0 0 0.26 0"/>
<feBlend mode="normal" in2="shape" result="effect1_innerShadow"/>
<feColorMatrix in="SourceAlpha" type="matrix" values="0 0 0 0 0 0 0 0 0 0 0 0 0 0 0 0 0 0 127 0" result="hardAlpha"/>
<feOffset dy="-4"/>
<feGaussianBlur stdDeviation="2"/>
<feComposite in2="hardAlpha" operator="arithmetic" k2="-1" k3="1"/>
<feColorMatrix type="matrix" values="0 0 0 0 0 0 0 0 0 0 0 0 0 0 0 0 0 0 0.35 0"/>
<feBlend mode="normal" in2="effect1_innerShadow" result="effect2_innerShadow"/>
</filter>
</defs>
</svg>

